<?xml version="1.0" standalone="yes"?>
<svg xmlns="http://www.w3.org/2000/svg" width="271" height="88">
<path style="fill:#020202; stroke:none;" d="M0 0L0 88L51 88L52 82L59 88L58 83C64.7076 82.619 80.8079 79.6358 82 88L83 88C82.9784 86.2864 82.7248 78.508 85 83L99 83L97 88L101 88L100 84L107 83L111 80L109 88L115 88C115 84.6864 113.273 73.7168 117.318 72.3449C121.976 70.765 130.468 81.5144 134 84L134 71C141.834 74.0839 133.914 86.6687 140 88C141.911 81.8149 152.77 84 158 84C154.127 78.026 144.325 84.3157 140.832 77.8557C138.37 73.3038 144.739 71.2483 148 71.044C159.904 70.298 172.071 71 184 71C181.683 74.9284 178.206 74.5129 174 75L174 88L185 88C185 83.9052 183.663 76.8614 186.028 73.3179C192.19 64.0827 218.717 74.8954 205 87L205 88L210 88C210 84.0991 209.047 78.6269 211.028 75.1088C214.217 69.4439 227.582 69.0453 231.397 74.1481C234.077 77.7333 233 83.782 233 88L271 88L271 0L0 0z"/>
<path style="fill:#927269; stroke:none;" d="M245 6L254 6L254 7L252 7L252 8C269.44 5.56112 257.185 22.2852 266 28C266 22.9148 268.252 10.6297 264.397 6.84337C260.983 3.49045 243.751 -2.14824 245 6z"/>
<path style="fill:#4d2e2f; stroke:none;" d="M248.667 1.33334L249.333 1.66666L248.667 1.33334M252 2L253 3L252 2M255.667 3.33334L256.333 3.66666L255.667 3.33334z"/>
<path style="fill:#971010; stroke:none;" d="M245.667 4.33334L246.333 4.66666L245.667 4.33334z"/>
<path style="fill:#4d2e2f; stroke:none;" d="M259 4L260 5L259 4z"/>
<path style="fill:#971010; stroke:none;" d="M247 5L247 6L254 7L247 5z"/>
<path style="fill:#4d2e2f; stroke:none;" d="M262 5L263 6L262 5M247 6L248 7L247 6z"/>
<path style="fill:#927269; stroke:none;" d="M248.667 6.33334L249.333 6.66666L248.667 6.33334z"/>
<path style="fill:#4d2e2f; stroke:none;" d="M265 6L266 7L265 6M228 7L228 8L231 8L228 7M250.667 7.33334L251.333 7.66666L250.667 7.33334z"/>
<path style="fill:#971010; stroke:none;" d="M254 7L254 8C267.254 11.1975 256.817 21.723 264 28C261.789 18.7145 266.559 8.10568 254 7z"/>
<path style="fill:#4d2e2f; stroke:none;" d="M226 8L225 11L226 11L226 8z"/>
<path style="fill:#971010; stroke:none;" d="M251 43C251 37.0522 253.684 22.2087 249.397 17.7029C244.751 12.8209 233.163 12.6521 227 10L233 10C229.468 7.61794 223.252 10.1287 227.488 14.2731C232.19 18.8734 242.257 16.3486 245.972 22.2778C249.685 28.2034 242.806 40.2805 251 43z"/>
<path style="fill:#927269; stroke:none;" d="M231 8L232 9L231 8z"/>
<path style="fill:#4d2e2f; stroke:none;" d="M232.667 8.33334L233.333 8.66666L232.667 8.33334M254 8L255 9L254 8z"/>
<path style="fill:#927269; stroke:none;" d="M255.667 8.33334L256.333 8.66666L255.667 8.33334z"/>
<path style="fill:#4d2e2f; stroke:none;" d="M266 8L266 27L267 27L266 8z"/>
<path style="fill:#927269; stroke:none;" d="M226 9L227 10L226 9M227 10C233.324 13.8635 243.11 12.7695 248.682 17.7029C253.702 22.147 251 36.7921 251 43L252 43L254 42L254 15L253 14C249.984 15.0052 248.295 15.8211 249 13L244 14L244 13L246 13L246 12C242.768 12.5387 241.275 13.8983 242 11C239.05 11.9833 238.378 12.4869 239 10L234 11L234 10L236 10L227 10z"/>
<path style="fill:#4d2e2f; stroke:none;" d="M236.667 9.33334L237.333 9.66666L236.667 9.33334M257 9L258 10L257 9z"/>
<path style="fill:#927269; stroke:none;" d="M258.667 9.33334L259.333 9.66666L258.667 9.33334z"/>
<path style="fill:#971010; stroke:none;" d="M234 10L234 11L238 11L234 10z"/>
<path style="fill:#4d2e2f; stroke:none;" d="M239.667 10.3333L240.333 10.6667L239.667 10.3333M260 10L261 11L260 10z"/>
<path style="fill:#927269; stroke:none;" d="M261 10L261 13L262 13L261 10z"/>
<path style="fill:#971010; stroke:none;" d="M238 11L238 12L241 12L238 11z"/>
<path style="fill:#4d2e2f; stroke:none;" d="M242 11L242 12L245 12L242 11M225.333 12.6667L225.667 13.3333L225.333 12.6667z"/>
<path style="fill:#971010; stroke:none;" d="M241 12L241 13L244 13L241 12z"/>
<path style="fill:#4d2e2f; stroke:none;" d="M246.667 12.3333L247.333 12.6667L246.667 12.3333z"/>
<path style="fill:#971010; stroke:none;" d="M244 13L244 14L248 14L244 13z"/>
<path style="fill:#4d2e2f; stroke:none;" d="M249.667 13.3333L250.333 13.6667L249.667 13.3333M261 13L262 14L261 13M226 14L227 15L226 14z"/>
<path style="fill:#971010; stroke:none;" d="M248 14L248 15L252 15L248 14z"/>
<path style="fill:#927269; stroke:none;" d="M261.333 14.6667L261.667 15.3333L261.333 14.6667z"/>
<path style="fill:#4d2e2f; stroke:none;" d="M227.667 15.3333L228.333 15.6667L227.667 15.3333z"/>
<path style="fill:#971010; stroke:none;" d="M252 15L253 16L252 15z"/>
<path style="fill:#4d2e2f; stroke:none;" d="M230 16L230 17L233 17L230 16z"/>
<path style="fill:#971010; stroke:none;" d="M253 16L253 41L254 41L253 16z"/>
<path style="fill:#4d2e2f; stroke:none;" d="M254 16L254 41L255 41L254 16M261 16L262 17L261 16M234.667 17.3333L235.333 17.6667L234.667 17.3333z"/>
<path style="fill:#927269; stroke:none;" d="M261 17L262 18L261 17z"/>
<path style="fill:#4d2e2f; stroke:none;" d="M237 18L237 19L240 19L237 18M261.333 18.6667L261.667 19.3333L261.333 18.6667M241.667 19.3333L242.333 19.6667L241.667 19.3333M244.667 20.3333L245.333 20.6667L244.667 20.3333z"/>
<path style="fill:#927269; stroke:none;" d="M261 20L261 23L262 23L261 20z"/>
<path style="fill:#4d2e2f; stroke:none;" d="M246 21L246 41L247 41L246 21M261 23L261 28L262 28L261 23M262 28L262 29L265 29L262 28M6 30L6 31L9 31L6 30M34 30L34 31L39 31L39 56L40 56L40 30L34 30M52 30L52 31L68 31L52 30M70 30L70 31L78 31L78 35L52 36L52 37L79 36C78.5398 30.0931 75.262 30.0186 70 30M92 30L92 31L96 31L92 30M97.6667 30.3333L98.3333 30.6667L97.6667 30.3333M100 30L100 31L103 31L100 30M104 30L104 31L117 31L104 30M120 36L121 36L121 31L143 31C136.685 28.3501 120.668 27.4319 120 36M144 30L144 31L156 31L156 36C158.821 28.5736 148.557 30 144 30M168 30L168 31L173 31L168 30M175 30L175 31L181 31L175 30M182 30L182 31L194 31L194 35L169 35C173.336 36.8194 189.533 38.1231 193.377 34.9769C199.406 30.0433 183.759 30 182 30M207 30L207 31L212 31L207 30M213 30L213 31L223 31L213 30M224 30L224 31L232 31L224 30z"/>
<path style="fill:#971010; stroke:none;" d="M4 59C10.7733 56.2772 8 43.2088 8 37C14.5343 43.0186 21.1041 49.1946 28 54.8002C30.372 56.7283 34.4089 59.6422 37.3966 57.0988C41.7921 53.3569 39 36.4812 39 31L34 31L35 52C26.7581 46.8447 18.5214 33.6644 9.01543 31.5725C-0.215357 29.5412 2.51165 53.9647 4 59z"/>
<path style="fill:#4d2e2f; stroke:none;" d="M10 31L11 32L10 31M49 31L48 33L49 31z"/>
<path style="fill:#971010; stroke:none;" d="M78 58L78 54C73.426 54 50.4619 56.7013 50.3457 50.0895C50.2527 44.7965 73.0493 47 77 47L78 43L49 42C54.3765 31.7584 68.0569 35 78 35L78 31C70.1021 31 56.0851 28.306 49.108 32.3179C42.7511 35.9733 42.5304 53.3968 49.0586 56.9722C55.9636 60.7539 70.2192 58 78 58z"/>
<path style="fill:#4d2e2f; stroke:none;" d="M87.6667 31.3333L88.3333 31.6667L87.6667 31.3333z"/>
<path style="fill:#971010; stroke:none;" d="M116 59L117 54C109.906 54 96.4036 56.5966 90.2284 52.821C85.0006 49.6246 86.0841 39.0075 91.1088 36.179C97.4434 32.6132 109.87 35 117 35L117 31C108.736 31 94.4961 28.2703 87.1088 32.3179C81.1335 35.5919 80.7735 52.3245 86.1481 56.2577C93.2278 61.4388 107.555 56.9895 116 59M121 31L121 36L136 36L137 59L141 58L141 36L156 36L156 31L121 31z"/>
<path style="fill:#4d2e2f; stroke:none;" d="M165 31L166 32L165 31z"/>
<path style="fill:#971010; stroke:none;" d="M194 58L194 54C185.591 54 166.715 57.9828 165 47L193 47L192 42C185.601 43.5234 178.557 43.267 172.001 42.9807C170.122 42.8987 166.159 42.75 166.631 39.8711C167.941 31.879 188.35 35 194 35L194 31C186.038 31 172.168 28.3334 165.055 32.179C158.26 35.8524 157.34 52.7402 164.214 56.821C170.776 60.7165 186.53 58.6283 194 58z"/>
<path style="fill:#4d2e2f; stroke:none;" d="M203.667 31.3333L204.333 31.6667L203.667 31.3333z"/>
<path style="fill:#971010; stroke:none;" d="M232 59C232.426 56.2137 232.118 54.683 228.941 54.1481C222.221 53.0169 212.249 56.5022 206.228 52.821C198.906 48.3441 203.364 35.9639 211 35.1088C213.954 34.778 217.031 35 220 35L233 35L233 31C224.64 31 210.574 28.3113 203.059 32.3179C197.069 35.5108 196.794 52.3396 202.148 56.2577C209.343 61.5232 223.531 56.9847 232 59z"/>
<path style="fill:#4d2e2f; stroke:none;" d="M11 32L12 33L11 32M85 32L86 33L85 32M201 32L202 33L201 32M3 33L4 34L3 33M34 33L34 40L35 40L34 33M84 33L85 34L84 33M162 33L163 34L162 33M200 33L201 34L200 33M83.3333 34.6667L83.6667 35.3333L83.3333 34.6667M199 34L200 35L199 34M15 35L16 36L15 35M45 35L46 36L45 35M91 35L91 36L117 36L91 35M207 35L207 36L233 36L207 35M16 36L17 37L16 36M89 36L90 37L89 36M135 36L135 58L136 58L135 36M141 36C141 41.9584 143.477 54.4495 138 58L138 59L142 59L141 36M160.333 36.6667L160.667 37.3333L160.333 36.6667M198 36L198 53L199 53L198 36M205 36L206 37L205 36M8 37L9 38L8 37M17 37L18 38L17 37M44.3333 37.6667L44.6667 38.3333L44.3333 37.6667M82 37L82 52L83 52L82 37M88 37L89 38L88 37M204 37L205 38L204 37M18 38L19 39L18 38M50 38L51 39L50 38M166 38L167 39L166 38M203 38L203 51L204 51L203 38M8 39L8 58L9 58L8 39M19 39L20 40L19 39M87 39L87 51L88 51L87 39M165 39L165 42L166 42L165 39M20 40L21 41L20 40M44 40L44 53L45 53L44 40M49.3333 40.6667L49.6667 41.3333L49.3333 40.6667M13 41L14 42L13 41M34.3333 41.6667L34.6667 42.3333L34.3333 41.6667z"/>
<path style="fill:#971010; stroke:none;" d="M252 41L253 42L252 41z"/>
<path style="fill:#4d2e2f; stroke:none;" d="M14 42L15 43L14 42M50 42L50 43L78 43L50 42M166 42L166 43L191 43L166 42M192 42L193 47L194 47L192 42M252 42L253 43L252 42M15 43L16 44L15 43M249 43L249 44L252 44L249 43M16 44L17 45L16 44M25 44L26 45L25 44M34 44L34 49L35 49L34 44M77 44L77 47L78 47L77 44M17 45L18 46L17 45M26 45L27 46L26 45M18 46L19 47L18 46M27 46L28 47L27 46M19 47L20 48L19 47M28 47L29 48L28 47M165 47L165 52L166 52L165 47M29 48L30 49L29 48M49 48L49 51L50 51L49 48M23 50L24 51L23 50M24 51L25 52L24 51M33.6667 51.3333L34.3333 51.6667L33.6667 51.3333M25 52L26 53L25 52M50 52L51 53L50 52M88 52L89 53L88 52M160.333 52.6667L160.667 53.3333L160.333 52.6667M166 52L167 53L166 52M204 52L205 53L204 52M26 53L27 54L26 53M51.6667 53.3333L52.3333 53.6667L51.6667 53.3333M54 53L55 54L54 53M60.6667 53.3333L61.3333 53.6667L60.6667 53.3333M67 53L68 54L67 53M72 53L73 54L72 53M75 53L76 54L75 53M90.6667 53.3333L91.3333 53.6667L90.6667 53.3333M96.6667 53.3333L97.3333 53.6667L96.6667 53.3333M103 53L104 54L103 53M110.667 53.3333L111.333 53.6667L110.667 53.3333M114 53L115 54L114 53M167 53L168 54L167 53M206.667 53.3333L207.333 53.6667L206.667 53.3333M218 53L219 54L218 53M27 54L28 55L27 54M45 54L46 55L45 54M78 54L78 58L50 58L50 59L79 59L78 54M83 54L84 55L83 54M161 54L162 55L161 54M194 54L194 58L190 58L190 59L195 59L194 54M199 54L200 55L199 54M232 54L233 55L232 54M28 55L29 56L28 55M46 55L47 56L46 55M84 55L85 56L84 55M200 55L201 56L200 55M47 56L48 57L47 56M85 56L86 57L85 56M201 56L202 57L201 56M31 57L32 58L31 57M38 57L39 58L38 57M48 57L49 58L48 57M86.6667 57.3333L87.3333 57.6667L86.6667 57.3333M164 57L165 58L164 57M202.667 57.3333L203.333 57.6667L202.667 57.3333M3 58L4 59L3 58M6.66667 58.3333L7.33333 58.6667L6.66667 58.3333M33 58L34 59L33 58M35.6667 58.3333L36.3333 58.6667L35.6667 58.3333M89 58L89 59L115 59L89 58M116 58L117 59L116 58M136 58L137 59L136 58M165 58L165 59L183 59L165 58M184 58L184 59L189 59L184 58M205 58L205 59L220 59L205 58M221 58L221 59L231 59L221 58M232 58L233 59L232 58M116 71L115 73L116 71z"/>
<path style="fill:#115c9c; stroke:none;" d="M118 88L118 75C120.846 77.7873 130.982 89.8009 135.397 86.9136C138.734 84.7304 137 74.5087 137 71C132.776 73.7385 134 79.4304 134 84C130.618 80.8849 123.069 71.4825 118.148 72.037C112.372 72.6879 114.669 85.8404 118 88z"/>
<path style="fill:#4d2e2f; stroke:none;" d="M119 71L120 72L119 71M134 71L135 72L134 71M143 71L144 72L143 71z"/>
<path style="fill:#115c9c; stroke:none;" d="M158 82L158 84L140 85L140 88C145.224 88 153.019 89.4448 157.852 87.2577C161.106 85.7853 161.781 81.2508 158.682 79.179C154.757 76.5548 147.598 78.0947 143 77L143 75L171 74C171 78.7447 169.6 85.1472 174 88C174 79.0437 173.741 74.0362 184 74C181.666 70.3997 178.005 71.0018 174 71C165.952 70.9964 149.215 67.8293 142.318 72.3179C137.392 75.5239 141.863 80.4192 146.005 80.8912C150.088 81.3565 153.951 81.0361 158 82z"/>
<path style="fill:#4d2e2f; stroke:none;" d="M183 71L184 72L183 71z"/>
<path style="fill:#115c9c; stroke:none;" d="M186.742 72.0278C184.002 74.2445 183.81 84.7601 186.603 86.9722C189.897 89.5808 202.537 88.8519 205.682 86.2577C217.731 76.32 194.997 65.3489 186.742 72.0278z"/>
<path style="fill:#4d2e2f; stroke:none;" d="M203.667 71.3333L204.333 71.6667L203.667 71.3333M214 71L215 72L214 71z"/>
<path style="fill:#115c9c; stroke:none;" d="M213 88C215.982 83.4003 227.018 83.4003 230 88C233.021 86.0415 233.071 83.5281 232.984 80C232.449 58.3465 196.902 77.5636 213 88z"/>
<path style="fill:#4d2e2f; stroke:none;" d="M229 71L230 72L229 71M137 72L137 86L138 86L137 72M185 72L186 73L185 72M144 74L144 75L148 75L144 74z"/>
<path style="fill:#020202; stroke:none;" d="M143 75L143 77C150.714 77.8155 164.287 76.5641 159 88L171 88L171 75L143 75z"/>
<path style="fill:#4d2e2f; stroke:none;" d="M149 74L149 75L163 75L149 74M164 74L164 75L171 75L164 74M175.667 74.3333L176.333 74.6667L175.667 74.3333M178 74L178 75L182 75L178 74M189 74C185.513 85.8022 193.922 85 203 85L203 84L189 84L189 74z"/>
<path style="fill:#020202; stroke:none;" d="M190 74L189 84C191.752 84 212.938 83.6025 203.397 76.0278C200.489 73.7196 193.657 74.8705 190 74z"/>
<path style="fill:#4d2e2f; stroke:none;" d="M191 74L191 75L202 75L191 74M210 74L211 75L210 74M216 74L216 75L222 75L216 74z"/>
<path style="fill:#020202; stroke:none;" d="M214 75L214 82L229 82L229 75L214 75z"/>
<path style="fill:#4d2e2f; stroke:none;" d="M223.667 74.3333L224.333 74.6667L223.667 74.3333M226 74L227 75L226 74M232 74L233 75L232 74M118 75L119 76L118 75M139 75L139 78L140 78L139 75z"/>
<path style="fill:#020202; stroke:none;" d="M118 76L118 88L132 88L132 87L118 76z"/>
<path style="fill:#4d2e2f; stroke:none;" d="M125 76L126 77L125 76M174.333 76.6667L174.667 77.3333L174.333 76.6667M208 76L208 84L209 84L208 76M229 76L229 82L230 82L229 76M118 77L118 87L119 87L118 77M126 77L127 78L126 77M144 77L144 78L147 78L144 77M148 77L149 78L148 77M151.667 77.3333L152.333 77.6667L151.667 77.3333M154.667 77.3333L155.333 77.6667L154.667 77.3333M213 77L213 82L214 82L213 77M127 78L128 79L127 78M158 78L159 79L158 78M128 79L129 80L128 79M82 83L83 83L85 81L82 83M107 81L107 82L110 81L109 83L110 83L111 80L107 81M142 80L143 81L142 80M174 80L174 87L175 87L174 80z"/>
<path style="fill:#927269; stroke:none;" d="M83 81L83 88L88 86L89 86L93 88L94 84L89 85L83 81M108 81L107 88L109 88L110 81L108 81z"/>
<path style="fill:#4d2e2f; stroke:none;" d="M125 81L126 82L125 81M52.6667 82.3333L53.3333 82.6667L52.6667 82.3333M61 82L62 83L61 82M64 82L64 83L67 86L68 86L69 83L64 82M70 82L71 83L70 82M76 82L77 83L76 82M79 82L80 83L79 82M86 82L87 83L86 82M91 82L92 83L91 82M103 82L104 83L103 82M126 82L127 83L126 82M161 82L162 83L161 82z"/>
<path style="fill:#927269; stroke:none;" d="M51 83L51 84L53 85L51 88L56 88C55.4235 84.5256 54.4744 83.5765 51 83z"/>
<path style="fill:#4d2e2f; stroke:none;" d="M55 83L56 84L55 83M58 83L58 87L59 87L58 83z"/>
<path style="fill:#927269; stroke:none;" d="M59 83L59 88L60 88L61 84L62 84L62 88L64 88L64 84L65 84L66 88C67.5923 83.141 62.6893 83.0437 59 83M72 88L72 87L70 87L70 86L73 85C69.0979 82.3351 67.4707 86.4946 72 88z"/>
<path style="fill:#4d2e2f; stroke:none;" d="M72 83L73 87L70 86L70 87L74 88L72 83z"/>
<path style="fill:#927269; stroke:none;" d="M74 83L74 88L75 88L76 84L78 87L79 84L80 84L80 88C83.1721 83.3488 77.6316 83.043 74 83z"/>
<path style="fill:#4d2e2f; stroke:none;" d="M81 83L82 84L81 83M89 83L90 84L89 83M93 83L94 84L93 83z"/>
<path style="fill:#927269; stroke:none;" d="M95 83L95 88L96 88L98 83L95 83z"/>
<path style="fill:#4d2e2f; stroke:none;" d="M98 83L99 84L98 83M101 83L100 86L101 86L101 83z"/>
<path style="fill:#927269; stroke:none;" d="M102.603 84.1566C100.87 85.3144 102.664 88.0015 104.397 86.8434C106.13 85.6855 104.336 82.9986 102.603 84.1566z"/>
<path style="fill:#4d2e2f; stroke:none;" d="M105 83L106 86L107 86L107 83L105 83M127 83L128 84L127 83M204 83L205 84L204 83M51.6667 84.3333L52.3333 84.6667L51.6667 84.3333M61 84L60 86L61 84M64 84L65 85L64 84M70 84L71 85L70 84M76 84L75 88L76 88L76 84M79 84L80 85L79 84M85 84L87 86L85 84M88 84L89 85L88 84M91 84L92 85L91 84M94 84L92 87L93 88L94 84M97 84L98 85L97 84z"/>
<path style="fill:#020202; stroke:none;" d="M103.333 84.6667L103.667 85.3333L103.333 84.6667z"/>
<path style="fill:#4d2e2f; stroke:none;" d="M109 84L110 85L109 84M128 84L129 85L128 84M141 84L141 85L157 85L141 84z"/>
<path style="fill:#020202; stroke:none;" d="M61 85L61 88L62 88L61 85M64 85L64 88L65 88L64 85M76 85L76 88L77 88L76 85M79 85L79 88L80 88L79 85M85 85L86 86L85 85z"/>
<path style="fill:#4d2e2f; stroke:none;" d="M102 85L103 86L102 85M104 85L105 86L104 85M129 85L130 86L129 85M207 85L208 86L207 85M213.333 85.6667L213.667 86.3333L213.333 85.6667z"/>
<path style="fill:#020202; stroke:none;" d="M213 88L230 88C226.702 83.4276 216.298 83.4276 213 88z"/>
<path style="fill:#4d2e2f; stroke:none;" d="M229.333 85.6667L229.667 86.3333L229.333 85.6667M50 86L51 87L50 86M53 86L54 87L53 86z"/>
<path style="fill:#020202; stroke:none;" d="M67.3333 86.6667L67.6667 87.3333L67.3333 86.6667M72 86L73 87L72 86M88 86L88 88L90 88L88 86M94.3333 86.6667L94.6667 87.3333L94.3333 86.6667z"/>
<path style="fill:#4d2e2f; stroke:none;" d="M103 86L104 87L103 86z"/>
<path style="fill:#020202; stroke:none;" d="M106.333 86.6667L106.667 87.3333L106.333 86.6667z"/>
<path style="fill:#4d2e2f; stroke:none;" d="M139 86L140 87L139 86M206 86L207 87L206 86M60 87L61 88L60 87M65 87L66 88L65 87M68 87L69 88L68 87M77.6667 87.3333L78.3333 87.6667L77.6667 87.3333M81 87L82 88L81 87M87 87L88 88L87 87M96 87L97 88L96 87M101 87L102 88L101 87M105 87L106 88L105 87M115 87L116 88L115 87M136 87L137 88L136 87M158 87L159 88L158 87M171 87L172 88L171 87M185 87L186 88L185 87M204 87L205 88L204 87M210 87L211 88L210 87M232 87L233 88L232 87z"/>
</svg>
